{
    "asset" : {
        "generator" : "Khronos glTF Blender I/O v3.4.50",
        "version" : "2.0"
    },
    "scene" : 0,
    "scenes" : [
        {
            "name" : "Scene",
            "nodes" : [
                2
            ]
        }
    ],
    "nodes" : [
        {
            "mesh" : 0,
            "name" : "tracks_split_left_arrow",
            "translation" : [
                -2.5234527587890625,
                0.03999999910593033,
                0.6259379386901855
            ]
        },
        {
            "mesh" : 1,
            "name" : "tracks_split_left_part",
            "translation" : [
                -2.063446044921875,
                0.03999999910593033,
                0.6259379386901855
            ]
        },
        {
            "children" : [
                0,
                1
            ],
            "mesh" : 2,
            "name" : "tracks_split_left"
        }
    ],
    "materials" : [
        {
            "name" : "holiday",
            "pbrMetallicRoughness" : {
                "baseColorTexture" : {
                    "index" : 0
                },
                "metallicFactor" : 0,
                "roughnessFactor" : 0.5
            }
        }
    ],
    "meshes" : [
        {
            "name" : "tracks_split_left_arrow",
            "primitives" : [
                {
                    "attributes" : {
                        "POSITION" : 0,
                        "TEXCOORD_0" : 1,
                        "NORMAL" : 2
                    },
                    "indices" : 3,
                    "material" : 0
                }
            ]
        },
        {
            "name" : "tracks_split_left_part",
            "primitives" : [
                {
                    "attributes" : {
                        "POSITION" : 4,
                        "TEXCOORD_0" : 5,
                        "NORMAL" : 6
                    },
                    "indices" : 7,
                    "material" : 0
                }
            ]
        },
        {
            "name" : "tracks_split_left",
            "primitives" : [
                {
                    "attributes" : {
                        "POSITION" : 8,
                        "TEXCOORD_0" : 9,
                        "NORMAL" : 10
                    },
                    "indices" : 11,
                    "material" : 0
                }
            ]
        }
    ],
    "textures" : [
        {
            "sampler" : 0,
            "source" : 0
        }
    ],
    "images" : [
        {
            "mimeType" : "image/png",
            "name" : "holiday_bits_texture",
            "uri" : "holiday_bits_texture.png"
        }
    ],
    "accessors" : [
        {
            "bufferView" : 0,
            "componentType" : 5126,
            "count" : 112,
            "max" : [
                0.12958283722400665,
                0.5350099802017212,
                0.05009293928742409
            ],
            "min" : [
                -0.09840010851621628,
                -0.002153020119294524,
                -0.05009472742676735
            ],
            "type" : "VEC3"
        },
        {
            "bufferView" : 1,
            "componentType" : 5126,
            "count" : 112,
            "type" : "VEC2"
        },
        {
            "bufferView" : 2,
            "componentType" : 5126,
            "count" : 112,
            "type" : "VEC3"
        },
        {
            "bufferView" : 3,
            "componentType" : 5123,
            "count" : 228,
            "type" : "SCALAR"
        },
        {
            "bufferView" : 4,
            "componentType" : 5126,
            "count" : 68,
            "max" : [
                0.05667147412896156,
                0.010000476613640785,
                0.056671515107154846
            ],
            "min" : [
                -0.08117768913507462,
                -0.010000007227063179,
                -0.5143146514892578
            ],
            "type" : "VEC3"
        },
        {
            "bufferView" : 5,
            "componentType" : 5126,
            "count" : 68,
            "type" : "VEC2"
        },
        {
            "bufferView" : 6,
            "componentType" : 5126,
            "count" : 68,
            "type" : "VEC3"
        },
        {
            "bufferView" : 7,
            "componentType" : 5123,
            "count" : 168,
            "type" : "SCALAR"
        },
        {
            "bufferView" : 8,
            "componentType" : 5126,
            "count" : 827,
            "max" : [
                8.134971096751542e-08,
                0.05000001937150955,
                2.24208664894104
            ],
            "min" : [
                -2.6238412857055664,
                -1.7695128917694092e-08,
                -3.364301619512844e-07
            ],
            "type" : "VEC3"
        },
        {
            "bufferView" : 9,
            "componentType" : 5126,
            "count" : 827,
            "type" : "VEC2"
        },
        {
            "bufferView" : 10,
            "componentType" : 5126,
            "count" : 827,
            "type" : "VEC3"
        },
        {
            "bufferView" : 11,
            "componentType" : 5123,
            "count" : 1506,
            "type" : "SCALAR"
        }
    ],
    "bufferViews" : [
        {
            "buffer" : 0,
            "byteLength" : 1344,
            "byteOffset" : 0,
            "target" : 34962
        },
        {
            "buffer" : 0,
            "byteLength" : 896,
            "byteOffset" : 1344,
            "target" : 34962
        },
        {
            "buffer" : 0,
            "byteLength" : 1344,
            "byteOffset" : 2240,
            "target" : 34962
        },
        {
            "buffer" : 0,
            "byteLength" : 456,
            "byteOffset" : 3584,
            "target" : 34963
        },
        {
            "buffer" : 0,
            "byteLength" : 816,
            "byteOffset" : 4040,
            "target" : 34962
        },
        {
            "buffer" : 0,
            "byteLength" : 544,
            "byteOffset" : 4856,
            "target" : 34962
        },
        {
            "buffer" : 0,
            "byteLength" : 816,
            "byteOffset" : 5400,
            "target" : 34962
        },
        {
            "buffer" : 0,
            "byteLength" : 336,
            "byteOffset" : 6216,
            "target" : 34963
        },
        {
            "buffer" : 0,
            "byteLength" : 9924,
            "byteOffset" : 6552,
            "target" : 34962
        },
        {
            "buffer" : 0,
            "byteLength" : 6616,
            "byteOffset" : 16476,
            "target" : 34962
        },
        {
            "buffer" : 0,
            "byteLength" : 9924,
            "byteOffset" : 23092,
            "target" : 34962
        },
        {
            "buffer" : 0,
            "byteLength" : 3012,
            "byteOffset" : 33016,
            "target" : 34963
        }
    ],
    "samplers" : [
        {
            "magFilter" : 9729,
            "minFilter" : 9987
        }
    ],
    "buffers" : [
        {
            "byteLength" : 36028,
            "uri" : "tracks_split_left.bin"
        }
    ]
}
